<?xml version="1.0" encoding="UTF-8" standalone="no"?>
<!-- Created with Inkscape (http://www.inkscape.org/) -->

<svg
   xmlns:dc="http://purl.org/dc/elements/1.1/"
   xmlns:cc="http://creativecommons.org/ns#"
   xmlns:rdf="http://www.w3.org/1999/02/22-rdf-syntax-ns#"
   xmlns:svg="http://www.w3.org/2000/svg"
   xmlns="http://www.w3.org/2000/svg"
   xmlns:sodipodi="http://sodipodi.sourceforge.net/DTD/sodipodi-0.dtd"
   xmlns:inkscape="http://www.inkscape.org/namespaces/inkscape"
   width="640"
   height="480"
   id="svg3320"
   version="1.1"
   inkscape:version="0.92.4 (5da689c313, 2019-01-14)"
   sodipodi:docname="login-ma-in.svg">
  <defs
     id="defs3322">
    <linearGradient
       id="linearGradient5012">
      <stop
         id="stop5014"
         offset="0"
         style="stop-color:#fdf188;stop-opacity:1;" />
      <stop
         id="stop5016"
         offset="1"
         style="stop-color:#d3bc00;stop-opacity:1;" />
    </linearGradient>
    <linearGradient
       id="linearGradient8543">
      <stop
         id="stop8545"
         offset="0"
         style="stop-color:#fffef5;stop-opacity:0.94117647;" />
      <stop
         id="stop8547"
         offset="1"
         style="stop-color:#fce94f;stop-opacity:0;" />
    </linearGradient>
    <linearGradient
       id="linearGradient11202">
      <stop
         id="stop11204"
         offset="0"
         style="stop-color:#c4a000;stop-opacity:1;" />
      <stop
         id="stop11206"
         offset="1"
         style="stop-color:#c4a000;stop-opacity:0;" />
    </linearGradient>
    <linearGradient
       id="linearGradient18284">
      <stop
         id="stop18286"
         offset="0"
         style="stop-color:#000000;stop-opacity:1;" />
      <stop
         style="stop-color:#000000;stop-opacity:1;"
         offset="0.5"
         id="stop20913" />
      <stop
         style="stop-color:#000000;stop-opacity:0;"
         offset="1"
         id="stop19165" />
    </linearGradient>
    <inkscape:perspective
       id="perspective47"
       inkscape:persp3d-origin="24 : 16 : 1"
       inkscape:vp_z="48 : 24 : 1"
       inkscape:vp_y="0 : 1000 : 0"
       inkscape:vp_x="0 : 24 : 1"
       sodipodi:type="inkscape:persp3d" />
  </defs>
  <sodipodi:namedview
     id="base"
     pagecolor="#ffffff"
     bordercolor="#666666"
     borderopacity="1.0"
     inkscape:pageopacity="0.0"
     inkscape:pageshadow="2"
     inkscape:zoom="0.775"
     inkscape:cx="303.81949"
     inkscape:cy="250.84337"
     inkscape:document-units="px"
     inkscape:current-layer="g3825"
     showgrid="false"
     inkscape:window-width="931"
     inkscape:window-height="672"
     inkscape:window-x="0"
     inkscape:window-y="0"
     inkscape:window-maximized="1" />
  <metadata
     id="metadata3325">
    <rdf:RDF>
      <cc:Work
         rdf:about="">
        <dc:format>image/svg+xml</dc:format>
        <dc:type
           rdf:resource="http://purl.org/dc/dcmitype/StillImage" />
        <dc:title />
      </cc:Work>
    </rdf:RDF>
  </metadata>
  <g
     inkscape:label="Layer 1"
     inkscape:groupmode="layer"
     id="layer1"
     transform="translate(0,-572.3622)">
    <rect
       style="fill:#000000;fill-opacity:1;stroke:none"
       id="rect3328"
       width="640"
       height="480"
       x="0"
       y="572.36218" />
    <text
       xml:space="preserve"
       style="font-style:normal;font-weight:normal;line-height:0%;font-family:sans-serif;letter-spacing:0px;word-spacing:0px;fill:#000000;fill-opacity:1;stroke:none"
       x="200"
       y="336.7742"
       id="text3114"
       transform="translate(0,572.3622)"><tspan
         sodipodi:role="line"
         id="tspan3116"
         x="200"
         y="336.7742"
         style="font-size:40px;line-height:1.25;font-family:sans-serif"> </tspan></text>
    <text
       xml:space="preserve"
       style="font-style:normal;font-weight:normal;line-height:0%;font-family:sans-serif;letter-spacing:0px;word-spacing:0px;fill:#000000;fill-opacity:1;stroke:none"
       x="36.129032"
       y="140.64516"
       id="text3042"
       transform="translate(0,572.3622)"><tspan
         sodipodi:role="line"
         id="tspan3044"
         x="36.129032"
         y="140.64516"
         style="font-size:40px;line-height:1.25;font-family:sans-serif"> </tspan><tspan
         sodipodi:role="line"
         id="tspan3046"
         x="36.129032"
         y="190.64516"
         style="font-size:40px;line-height:1.25;font-family:sans-serif"> </tspan></text>
    <g
       transform="matrix(0.65003874,0,0,0.65003874,369.01422,592.9292)"
       id="g509">
      <path
         inkscape:connector-curvature="0"
         id="path2"
         d="m 220.928,75.288 c -1.555,-2.298 -3.59,-3.635 -6.096,-4.019 -2.503,-0.383 -4.517,0.296 -6.053,2.031 -1.456,1.673 -2.18,3.969 -2.18,6.894 0,2.947 0.716,5.521 2.153,7.731 0.601,0.909 1.279,1.672 2.029,2.298 2.175,-0.234 4.365,-0.478 6.565,-0.747 1.473,-0.181 2.952,-0.37 4.437,-0.567 0.951,-1.575 1.436,-3.52 1.436,-5.843 -0.001,-2.966 -0.766,-5.561 -2.291,-7.778 z"
         style="fill:none" />
      <polygon
         id="polygon4"
         points="174.642,73.855 184.322,75.493 179.452,59.146 "
         style="fill:none" />
      <path
         inkscape:connector-curvature="0"
         id="path6"
         d="m 250.984,76.805 c -2.822,-0.432 -5.092,0.269 -6.821,2.095 -1.56,1.675 -2.365,3.962 -2.441,6.853 4.341,-0.816 8.716,-1.726 13.11,-2.77 1.214,-0.296 2.428,-0.605 3.645,-0.922 -0.191,-0.314 -0.395,-0.621 -0.614,-0.923 -1.757,-2.459 -4.052,-3.9 -6.879,-4.333 z"
         style="fill:none" />
      <path
         inkscape:connector-curvature="0"
         id="path8"
         d="m 89.787,94.86 c -22.84,-5.284 -36.616,-8.134 -36.616,-7.506 0,0.65 14.801,4.963 39.214,11.492 -0.669,-0.596 -1.271,-1.353 -1.775,-2.223 -0.315,-0.545 -0.588,-1.14 -0.823,-1.763 z"
         style="fill:#ecefe8" />
      <path
         inkscape:connector-curvature="0"
         id="path10"
         d="m 199.604,108.962 7.323,1.637 V 96.102 c -2.458,0.246 -4.899,0.472 -7.323,0.679 z"
         style="fill:#e6e6e6" />
      <path
         inkscape:connector-curvature="0"
         id="path12"
         d="m 227.199,70.567 c -2.809,-4.282 -6.4,-6.714 -10.748,-7.318 -3.655,-0.508 -6.825,0.645 -9.525,3.434 v -3.858 l -7.323,-1.029 v 29.502 c 3.686,-0.312 7.411,-0.67 11.177,-1.074 -0.75,-0.626 -1.428,-1.389 -2.029,-2.298 -1.437,-2.209 -2.153,-4.783 -2.153,-7.731 0,-2.925 0.725,-5.221 2.18,-6.894 1.536,-1.735 3.55,-2.414 6.053,-2.031 2.506,0.384 4.54,1.721 6.096,4.019 1.525,2.217 2.29,4.812 2.29,7.778 0,2.323 -0.485,4.269 -1.436,5.843 3.052,-0.403 6.129,-0.84 9.228,-1.32 0.121,-0.98 0.185,-1.999 0.185,-3.06 0.002,-5.249 -1.335,-9.912 -3.995,-13.963 z"
         style="fill:#e6e6e6" />
      <path
         inkscape:connector-curvature="0"
         id="path14"
         d="m 208.474,95.945 c 2.353,2.521 4.935,4.074 7.753,4.645 4.267,0.866 7.867,-0.325 10.769,-3.604 0.967,-1.102 1.765,-2.325 2.4,-3.664 -3.656,0.544 -7.278,1.039 -10.863,1.486 -3.385,0.42 -6.739,0.795 -10.059,1.137 z"
         style="fill:#e6e6e6" />
      <path
         inkscape:connector-curvature="0"
         id="path16"
         d="m 252.809,68.302 c -4.122,-0.573 -7.693,0.622 -10.734,3.556 v -4.094 l -8.238,-1.158 v 20.526 c 2.614,-0.426 5.243,-0.884 7.884,-1.381 0.076,-2.89 0.881,-5.178 2.441,-6.853 1.73,-1.825 4,-2.527 6.821,-2.095 2.827,0.433 5.123,1.874 6.879,4.332 0.219,0.302 0.423,0.609 0.614,0.923 2.832,-0.738 5.667,-1.536 8.481,-2.432 -0.573,-1.191 -1.241,-2.34 -2.009,-3.445 -3.174,-4.578 -7.231,-7.196 -12.139,-7.879 z"
         style="fill:#e6e6e6" />
      <path
         inkscape:connector-curvature="0"
         id="path18"
         d="m 272.496,77.718 c 0.647,-0.241 1.294,-0.484 1.937,-0.738 3.116,-1.249 6.196,-2.659 8.955,-4.413 -3.178,-0.368 -5.875,0.245 -8.091,1.849 -1.255,0.901 -2.186,2.002 -2.801,3.302 z"
         style="fill:#e6e6e6" />
      <path
         inkscape:connector-curvature="0"
         id="path20"
         d="m 117.228,53.073 c 0.076,-0.105 0.15,-0.212 0.229,-0.315 0.084,-0.111 0.17,-0.214 0.256,-0.32 -0.368,0.056 -0.735,0.115 -1.102,0.172 v 0.566 c 0.205,-0.033 0.41,-0.068 0.617,-0.103 z"
         style="fill:#75ad0a" />
      <path
         inkscape:connector-curvature="0"
         id="path22"
         d="m 88.953,90.023 c -3.657,-0.654 -7.257,-1.415 -10.797,-2.337 -3.548,-0.94 -7.043,-2.027 -10.431,-3.545 -1.67,-0.761 -3.322,-1.621 -4.879,-2.764 -0.77,-0.572 -1.521,-1.218 -2.173,-2.009 -0.645,-0.779 -1.189,-1.756 -1.292,-2.769 -0.118,-1.013 0.212,-2.047 0.684,-2.891 0.476,-0.856 1.081,-1.578 1.719,-2.229 1.26,-1.269 2.665,-2.279 4.109,-3.193 l -0.264,-1.292 c -0.002,0.001 -0.003,0.002 -0.005,0.003 -1.516,0.923 -3,1.941 -4.37,3.283 -0.678,0.675 -1.333,1.427 -1.889,2.402 -0.275,0.489 -0.527,1.04 -0.705,1.697 -0.177,0.651 -0.27,1.442 -0.185,2.262 0.08,0.82 0.332,1.601 0.64,2.238 0.31,0.643 0.672,1.175 1.046,1.644 0.754,0.935 1.56,1.639 2.374,2.266 1.642,1.244 3.332,2.158 5.036,2.973 3.452,1.624 6.979,2.797 10.558,3.825 3.6,1.016 7.256,1.873 10.968,2.612 -0.095,-0.634 -0.151,-1.28 -0.151,-1.932 -0.001,-0.083 0.006,-0.162 0.007,-0.244 z"
         style="fill:#75ad0a" />
      <path
         inkscape:connector-curvature="0"
         id="path24"
         d="m 75.246,62.493 c -0.524,0.2 -1.046,0.405 -1.566,0.613 l -0.311,1.36 c 0.706,-0.302 1.417,-0.596 2.132,-0.882 0.389,-0.153 0.781,-0.297 1.173,-0.446 L 76.552,62.02 c -0.436,0.158 -0.873,0.31 -1.306,0.473 z"
         style="fill:#75ad0a" />
      <path
         inkscape:connector-curvature="0"
         id="path26"
         d="m 147.389,49.203 c 1.842,-0.173 3.699,-0.334 5.569,-0.49 -0.013,-0.078 -0.029,-0.156 -0.039,-0.235 -1.869,0.146 -3.723,0.297 -5.564,0.454 -5.573,0.49 -11.018,1.052 -16.336,1.692 0.19,0.116 0.378,0.236 0.564,0.362 5.148,-0.665 10.416,-1.264 15.806,-1.783 z"
         style="fill:#75ad0a" />
      <path
         inkscape:connector-curvature="0"
         id="path28"
         d="m 291.997,65.888 -0.003,-0.017 c -0.187,-1.162 -0.748,-2.26 -1.444,-3.165 -0.701,-0.909 -1.525,-1.664 -2.38,-2.325 -1.713,-1.311 -3.553,-2.283 -5.397,-3.128 -3.672,-1.654 -7.399,-2.797 -11.089,-3.771 -7.263,-1.879 -14.412,-3.045 -21.392,-3.96 -13.509,-1.729 -26.427,-2.417 -38.77,-2.728 -11.727,-0.301 -22.957,-0.121 -33.729,0.244 -0.106,0.004 -0.212,0.007 -0.318,0.01 -0.552,0.02 -1.103,0.044 -1.653,0.065 -4.19,0.161 -8.31,0.372 -12.363,0.622 0.005,0.069 0.014,0.138 0.018,0.206 4.026,-0.254 8.119,-0.465 12.28,-0.629 1.107,-0.043 2.219,-0.083 3.335,-0.12 10.38,-0.339 21.19,-0.379 32.453,-0.027 12.343,0.415 25.26,1.288 38.731,3.162 6.957,0.993 14.079,2.241 21.264,4.188 3.646,1.005 7.323,2.181 10.874,3.829 1.781,0.837 3.539,1.798 5.102,3.021 1.546,1.208 2.941,2.792 3.209,4.562 0.28,1.796 -0.61,3.442 -1.761,4.763 -0.801,0.915 -1.736,1.71 -2.728,2.438 -0.452,0.331 -0.912,0.653 -1.382,0.957 -3.008,1.918 -6.292,3.383 -9.6,4.678 -1.151,0.443 -2.309,0.858 -3.469,1.26 -1.353,0.47 -2.709,0.919 -4.069,1.34 -2.793,0.864 -5.599,1.63 -8.398,2.337 -1.314,0.332 -2.627,0.653 -3.938,0.962 -4.565,1.069 -9.116,1.966 -13.624,2.764 -1.902,0.337 -3.795,0.661 -5.681,0.965 -0.745,0.119 -1.491,0.229 -2.234,0.342 -1.032,0.159 -2.061,0.317 -3.088,0.466 -3.456,0.503 -6.884,0.953 -10.281,1.362 -0.939,0.114 -1.873,0.229 -2.807,0.335 -1.661,0.19 -3.314,0.37 -4.959,0.542 -4.422,0.463 -8.788,0.862 -13.099,1.204 -1.018,0.081 -2.033,0.158 -3.044,0.233 -2.331,0.171 -4.646,0.324 -6.944,0.463 -2.002,0.121 -3.992,0.234 -5.97,0.331 -10.532,0.544 -20.713,0.804 -30.543,0.843 -18.611,0.059 -36.047,-0.722 -52.382,-2.721 -0.076,-0.009 -0.152,-0.02 -0.229,-0.03 0.041,0.416 0.069,0.835 0.069,1.257 0,0.379 -0.023,0.744 -0.056,1.102 0.111,0.016 0.221,0.034 0.332,0.049 8.072,1.133 16.406,1.946 25.005,2.475 8.909,0.546 18.124,0.867 27.638,0.872 13.692,0.034 28.047,-0.517 43.058,-1.804 0.284,-0.025 0.568,-0.052 0.853,-0.077 0.735,-0.064 1.473,-0.131 2.212,-0.199 2.423,-0.223 4.864,-0.466 7.323,-0.728 0.146,-0.015 0.292,-0.031 0.438,-0.046 3.58,-0.384 7.197,-0.807 10.851,-1.278 3.914,-0.519 7.87,-1.095 11.866,-1.734 1.249,-0.199 2.5,-0.407 3.756,-0.62 2.72,-0.463 5.457,-0.957 8.208,-1.494 4.602,-0.897 9.247,-1.902 13.926,-3.046 1.317,-0.327 2.637,-0.668 3.959,-1.019 2.786,-0.74 5.579,-1.54 8.364,-2.438 1.106,-0.357 2.208,-0.733 3.31,-1.121 1.453,-0.513 2.903,-1.049 4.346,-1.625 3.341,-1.357 6.664,-2.885 9.761,-4.916 0.769,-0.513 1.526,-1.056 2.249,-1.655 0.733,-0.607 1.43,-1.27 2.066,-2.015 0.629,-0.745 1.195,-1.579 1.587,-2.552 0.388,-0.961 0.576,-2.124 0.381,-3.261 z"
         style="fill:#75ad0a" />
      <polygon
         id="polygon30"
         points="77.278,59.82 76.012,48.273 72.999,61.487 72.999,61.488 76.012,48.274 "
         style="fill:#ffffff" />
      <rect
         id="rect32"
         height="0"
         width="1.71"
         style="fill:#ffffff"
         transform="matrix(0.2004,0.9797,-0.9797,0.2004,120.7157,-10.6743)"
         y="68.619003"
         x="66.042999" />
      <rect
         id="rect34"
         height="0"
         width="1.706"
         style="fill:#ffffff"
         transform="matrix(0.2005,0.9797,-0.9797,0.2005,117.3445,-12.4414)"
         y="65.674004"
         x="65.442001" />
      <rect
         id="rect36"
         height="2.1440001"
         width="0"
         style="fill:#ffffff"
         y="61.460999"
         x="72.760002" />
      <rect
         id="rect38"
         height="1.298"
         width="0"
         style="fill:#ffffff"
         y="66.496002"
         x="66.596001" />
      <path
         inkscape:connector-curvature="0"
         id="path40"
         d="m 97.254,56.237 v 0 c -0.218,0.048 -0.436,0.094 -0.654,0.143 -0.155,0.034 -0.309,0.071 -0.465,0.106 -2.387,0.538 -4.745,1.105 -7.071,1.708 -0.365,0.095 -0.728,0.189 -1.091,0.285 -0.028,0.307 -0.045,0.624 -0.053,0.951 0.347,-0.099 0.695,-0.198 1.044,-0.296 2.467,-0.688 4.97,-1.334 7.507,-1.949 0.088,-0.02 0.174,-0.043 0.262,-0.064 0.269,-0.064 0.539,-0.124 0.808,-0.186 v 0 c -0.087,-0.238 -0.183,-0.47 -0.287,-0.698 z"
         style="fill:#75ad0a" />
      <rect
         id="rect42"
         height="5.2480001"
         width="0"
         style="fill:#ffffff"
         y="75.522003"
         x="109.802" />
      <polygon
         id="polygon44"
         points="153.143,55.15 153.143,55.152 "
         style="fill:#ffffff" />
      <polygon
         id="polygon46"
         points=""
         style="fill:#ffffff" />
      <path
         inkscape:connector-curvature="0"
         id="path48"
         d="m 183.552,49.703 c -1.946,0.054 -3.878,0.114 -5.795,0.187 -0.959,0.034 -1.914,0.082 -2.866,0.12 l -12.233,38.118 -0.231,0.718 0.231,0.046 6.589,1.326 2.877,-8.573 14.858,2.74 2.263,7.691 c 2.292,-0.152 4.6,-0.317 6.924,-0.498 z m -8.91,24.152 4.81,-14.709 4.87,16.347 z"
         style="fill:#e6e6e6" />
      <rect
         id="rect50"
         height="0"
         width="6.408"
         style="fill:#ffffff"
         transform="matrix(-0.9804,-0.1972,0.1972,-0.9804,295.8515,205.1854)"
         y="87.865997"
         x="154.935" />
      <polygon
         id="polygon52"
         points="72.203,64.976 72.522,63.578 72.999,61.487 76.012,48.273 77.278,59.82 77.482,61.684 77.603,62.784 77.807,64.65 78.599,71.871 83.107,72.777 82.057,63.214 81.847,61.299 81.735,60.28 81.525,58.368 78.978,35.163 74.568,34.639 69.05,59.069 63.744,33.351 59.567,32.854 55.766,67.279 59.869,68.104 62.317,46.23 66.124,64.838 66.466,66.509 66.726,67.781 67.069,69.456 67.089,69.556 70.98,70.338 71.723,67.082 "
         style="fill:#e6e6e6" />
      <path
         inkscape:connector-curvature="0"
         id="path54"
         d="m 98.086,47.422 v 0 1.014 2.115 c -0.343,-0.557 -0.698,-1.063 -1.064,-1.522 -1.485,-1.864 -3.152,-2.922 -5,-3.178 -2.66,-0.369 -4.807,0.818 -6.453,3.545 -1.358,2.248 -2.11,5.048 -2.264,8.406 -0.02,0.433 -0.031,0.874 -0.031,1.326 v 0 0 c 0,0.227 0.003,0.452 0.009,0.675 0.009,0.34 0.025,0.676 0.046,1.01 0.041,0.656 0.107,1.302 0.198,1.935 0.351,2.445 1.069,4.725 2.161,6.843 1.704,3.284 3.858,5.198 6.473,5.728 1.735,0.352 3.356,-0.126 4.861,-1.439 0.362,-0.315 0.716,-0.677 1.064,-1.089 v 2.063 0.934 0 l 4.948,0.995 v 0 -18.854 -2.213 -0.694 -2.212 -3.126 -1.567 0 z m -0.374,21.031 -0.006,0.009 c -1.179,1.752 -2.844,2.465 -4.676,2.093 -1.787,-0.322 -3.394,-1.687 -4.52,-3.86 -0.786,-1.477 -1.284,-3.168 -1.496,-4.963 -0.078,-0.655 -0.119,-1.324 -0.12,-2.003 0,-0.02 -0.002,-0.039 -0.002,-0.059 -10e-4,-0.306 0.007,-0.606 0.022,-0.901 0.036,-0.74 0.124,-1.443 0.256,-2.111 0.259,-1.316 0.698,-2.486 1.328,-3.446 1.125,-1.745 2.728,-2.519 4.515,-2.231 1.672,0.233 3.195,1.292 4.336,3.077 0.1,0.156 0.201,0.308 0.295,0.475 0.266,0.464 0.497,0.956 0.702,1.467 0.091,0.227 0.174,0.458 0.253,0.692 0.222,0.659 0.402,1.345 0.53,2.057 0.175,0.974 0.264,1.989 0.261,3.028 0.005,2.689 -0.553,5.011 -1.678,6.676 z"
         style="fill:#e6e6e6" />
      <polygon
         id="polygon56"
         points="115.461,49.861 112.374,49.428 112.374,38.653 107.23,38.046 107.23,48.706 104.634,48.341 104.634,48.342 104.634,52.479 104.634,54.581 104.991,54.636 106.907,54.93 107.23,54.98 107.23,57.116 107.23,77.628 112.374,78.662 112.374,56.195 112.374,55.769 113.699,55.973 115.461,56.243 115.461,55.684 115.461,53.371 115.461,52.794 115.461,51.469 115.461,50.48 "
         style="fill:#e6e6e6" />
      <path
         inkscape:connector-curvature="0"
         id="path58"
         d="m 134.896,56.414 v 0 c -0.794,-1.207 -1.67,-2.225 -2.625,-3.063 -1.001,-0.878 -2.09,-1.554 -3.265,-2.026 -0.311,-0.125 -0.627,-0.237 -0.95,-0.334 -0.561,-0.168 -1.139,-0.297 -1.736,-0.379 -2.344,-0.325 -4.372,0.164 -6.093,1.45 -0.267,0.199 -0.529,0.417 -0.781,0.656 -0.402,0.379 -0.786,0.805 -1.152,1.282 -0.334,0.437 -0.637,0.899 -0.917,1.382 -0.283,0.489 -0.539,1.001 -0.766,1.537 -0.144,0.341 -0.279,0.691 -0.401,1.051 -0.66,1.954 -0.991,4.194 -0.991,6.724 v 0 0 c 0,4.505 1.052,8.379 3.172,11.643 2.138,3.293 4.875,5.287 8.231,5.967 3.916,0.794 7.033,-0.365 9.327,-3.494 0.275,-0.374 0.54,-0.772 0.791,-1.203 v 0 0 l -0.002,-0.001 -1.151,-0.944 -3.632,-2.98 c -1.507,1.694 -3.295,2.341 -5.361,1.95 -1.661,-0.314 -3.046,-1.183 -4.16,-2.604 -0.815,-1.04 -1.398,-2.301 -1.755,-3.778 -0.129,-0.531 -0.229,-1.089 -0.298,-1.677 l 1.197,0.21 16.679,2.921 0.022,-1.469 v 0 c 0.07,-4.993 -1.063,-9.275 -3.383,-12.821 z m -12.973,5.507 -1.306,-0.213 c 0.2,-0.571 0.406,-1.077 0.618,-1.526 0.427,-0.908 0.878,-1.573 1.354,-1.983 1.138,-0.985 2.467,-1.364 3.992,-1.133 1.358,0.206 2.589,0.898 3.689,2.078 0.728,0.78 1.297,1.701 1.713,2.756 0.216,0.547 0.393,1.128 0.524,1.748 l -1.296,-0.211 z"
         style="fill:#e6e6e6" />
      <path
         inkscape:connector-curvature="0"
         id="path60"
         d="m 150.674,53.991 c -1.603,-0.222 -2.914,0.316 -3.941,1.604 -0.499,0.626 -0.932,1.426 -1.297,2.407 v -3.231 -0.703 0 l -5.062,-0.71 v 0 30.935 0 l 5.869,1.18 v 0 -12.64 0 l -0.022,-1.527 c -0.004,-0.265 -0.006,-0.525 -0.006,-0.779 -0.011,-3.817 0.311,-6.437 0.964,-7.861 0.626,-1.401 1.399,-2.032 2.322,-1.891 0.153,0.023 0.327,0.086 0.508,0.167 0.358,0.158 0.767,0.416 1.236,0.795 l 0.451,-1.564 0.999,-3.47 0.448,-1.551 v -0.002 0 c -0.862,-0.665 -1.685,-1.05 -2.469,-1.159 z"
         style="fill:#e6e6e6" />
      <polygon
         id="polygon62"
         points="154.998,55.41 154.998,87.234 161.28,88.497 161.28,58.052 161.28,56.292 "
         style="fill:#e6e6e6" />
      <path
         inkscape:connector-curvature="0"
         id="path64"
         d="m 99.418,91.619 c -0.047,-0.439 -0.121,-0.871 -0.22,-1.292 -0.67,-2.869 -2.445,-5.207 -4.518,-5.667 -2.228,-0.494 -4.076,1.344 -4.572,4.253 -0.07,0.409 -0.112,0.84 -0.126,1.288 -0.003,0.103 -0.01,0.204 -0.01,0.31 0,0.641 0.064,1.275 0.174,1.891 0.085,0.471 0.199,0.93 0.34,1.373 0.154,0.48 0.335,0.942 0.548,1.375 0.861,1.755 2.17,3.07 3.646,3.441 1.514,0.381 2.87,-0.317 3.754,-1.715 0.305,-0.483 0.552,-1.052 0.73,-1.687 0.108,-0.386 0.191,-0.796 0.244,-1.229 0.048,-0.384 0.077,-0.782 0.077,-1.197 0.002,-0.385 -0.026,-0.767 -0.067,-1.144 z"
         style="fill:#75ad0a" />
      <path
         inkscape:connector-curvature="0"
         id="path66"
         d="m 161.471,49.08 c -0.007,-0.056 -0.012,-0.113 -0.02,-0.169 -0.071,-0.473 -0.199,-0.926 -0.374,-1.347 0,-10e-4 0,-10e-4 -0.001,-0.002 -0.109,-0.263 -0.236,-0.512 -0.379,-0.746 -0.106,-0.174 -0.223,-0.338 -0.346,-0.492 -0.611,-0.769 -1.411,-1.289 -2.286,-1.391 -1.04,-0.12 -1.965,0.372 -2.587,1.239 0,0.001 -0.001,0.001 -0.001,0.002 -0.222,0.309 -0.406,0.666 -0.541,1.061 -0.173,0.505 -0.269,1.072 -0.269,1.681 0,0.159 0.007,0.317 0.02,0.473 0.005,0.063 0.015,0.126 0.022,0.189 0.086,0.751 0.314,1.46 0.649,2.075 0.619,1.135 1.597,1.952 2.707,2.103 1.495,0.204 2.773,-0.859 3.25,-2.521 0.129,-0.447 0.202,-0.935 0.202,-1.456 0,-0.236 -0.018,-0.469 -0.046,-0.699 z"
         style="fill:#75ad0a" />
      <path
         inkscape:connector-curvature="0"
         id="path68"
         d="m 373.291,126.511 c -0.709,-0.937 -27.989,8.083 -60.931,20.148 -32.942,12.064 -59.071,22.604 -58.362,23.541 0.709,0.937 27.989,-8.083 60.931,-20.148 32.941,-12.064 59.071,-22.604 58.362,-23.541 z"
         style="fill:#ecefe8" />
      <path
         inkscape:connector-curvature="0"
         id="path70"
         d="m 148.664,108.965 c -18.786,-4.613 -35.288,-8.579 -48.929,-11.785 -0.255,0.565 -0.559,1.071 -0.91,1.493 -0.545,0.655 -1.197,1.126 -1.92,1.377 14.179,3.768 31.667,8.313 51.759,13.421 35.914,9.131 72.658,18.166 100.948,24.858 l 0.002,-3.767 c -28.291,-7.447 -65.036,-16.778 -100.95,-25.597 z"
         style="fill:#ecefe8" />
      <path
         inkscape:connector-curvature="0"
         id="path72"
         d="M 261.349,137.61 C 260.575,137.403 260,137.195 259,136.984 v 1.404 z"
         style="fill:#ecefe8" />
      <path
         inkscape:connector-curvature="0"
         id="path74"
         d="m 274.836,144.178 c 15.605,3.521 25.172,5.426 25.172,4.861 0,-0.534 -8.562,-3.138 -22.699,-7.04 -0.663,1.083 -1.565,1.801 -2.473,2.179 z"
         style="fill:#ecefe8" />
      <path
         inkscape:connector-curvature="0"
         id="path76"
         d="m 258.776,107.877 c 2.199,-0.573 4.186,-1.758 5.941,-3.604 3.16,-3.348 4.751,-7.755 4.751,-13.197 0,-2.163 -0.23,-4.236 -0.685,-6.219 -2.832,0.881 -5.664,1.663 -8.485,2.383 0.098,0.708 0.15,1.436 0.15,2.187 0,2.531 -0.576,4.633 -1.703,6.314 0.022,0.273 0.037,0.556 0.036,0.859 z"
         style="fill:#e6e6e6" />
      <path
         inkscape:connector-curvature="0"
         id="path78"
         d="m 244.131,94.42 c -0.701,-1.023 -1.158,-2.12 -1.555,-3.284 -2.904,0.543 -5.576,1.039 -8.576,1.5 v 23.98 l 8,1.841 v -17.5 c 2,2.875 4.857,4.902 7.591,6.081 l 0.023,-8.436 c -2.221,-0.718 -4.037,-2.106 -5.483,-4.182 z"
         style="fill:#e6e6e6" />
      <path
         inkscape:connector-curvature="0"
         id="path80"
         d="m 283.776,105.44 c -2.785,-0.527 -5.399,-2.54 -7.843,-6.021 l -5.683,5.495 c 3.196,5.062 7.524,8.164 13.027,9.28 0.904,0.184 1.772,0.296 2.609,0.349 l 0.005,-9.107 c -0.649,0.146 -1.354,0.148 -2.115,0.004 z"
         style="fill:#e6e6e6" />
      <path
         inkscape:connector-curvature="0"
         id="path82"
         d="m 297.284,104.413 c 0,-3.045 -0.925,-5.809 -2.75,-8.285 l -0.009,15.631 c 1.826,-1.757 2.759,-4.2 2.759,-7.346 z"
         style="fill:#e6e6e6" />
      <path
         inkscape:connector-curvature="0"
         id="path84"
         d="m 280.459,84.759 0.396,-0.104 c -0.258,-0.404 -0.398,-0.78 -0.398,-1.123 0,-1.645 1.131,-2.295 3.404,-1.948 0.991,0.151 2.043,0.636 3.155,1.451 l 9.221,-2.424 c -1.774,-2.568 -3.846,-4.537 -6.215,-5.898 -1.014,0.912 -2.08,1.679 -3.156,2.386 -3.266,2.101 -6.676,3.625 -10.093,4.98 -1.674,0.651 -3.351,1.256 -5.03,1.822 0.476,2.965 2.153,5.808 5.017,8.547 -0.117,-0.512 -0.186,-1.069 -0.186,-1.688 10e-4,-3.672 2.008,-5.507 3.885,-6.001 z"
         style="fill:#e6e6e6" />
      <path
         inkscape:connector-curvature="0"
         id="path86"
         d="m 281.49,95.474 c -0.286,0.078 -0.568,0.115 -0.847,0.133 l 3.168,2.215 c 0.819,0.569 1.504,1.121 2.083,1.659 l 0.003,-5.21 z"
         style="fill:#e6e6e6" />
      <path
         inkscape:connector-curvature="0"
         id="path88"
         d="m 273.913,135.477 c 1.263,-0.418 2.424,0.163 2.423,2.645 -0.001,2.484 -1.164,3.846 -2.426,4.277 l -22.305,7.61 0.029,-52.029 c 0.001,-2.287 0.728,-3.765 2.586,-4.253 1.849,-0.486 2.564,0.603 2.563,2.873 l -0.024,44.558 z"
         style="fill:#d788ff" />
      <path
         inkscape:connector-curvature="0"
         id="path90"
         d="m 292.516,129.317 6.703,-2.22 c 1.172,-0.388 2.248,0.185 2.247,2.577 -0.001,2.393 -1.079,3.691 -2.251,4.09 L 280.937,140 c -1.242,0.424 -2.391,-0.146 -2.39,-2.622 10e-4,-2.474 1.152,-3.818 2.394,-4.229 l 6.936,-2.297 0.021,-39.202 -6.936,1.893 c -1.242,0.339 -2.391,-0.309 -2.39,-2.784 10e-4,-2.476 1.152,-3.741 2.394,-4.067 l 18.277,-4.806 c 1.172,-0.308 2.248,0.339 2.247,2.732 -0.001,2.392 -1.079,3.616 -2.251,3.936 l -6.703,1.83 z"
         style="fill:#d788ff" />
      <path
         inkscape:connector-curvature="0"
         id="path92"
         d="m 320.64,89.811 0.006,-10.324 c 10e-4,-2.065 0.593,-3.382 2.109,-3.781 1.508,-0.396 2.092,0.604 2.091,2.655 l -0.006,10.128 c 0,0.833 -0.043,1.742 -0.252,2.572 l -8.093,33.951 c -0.43,1.769 -0.816,3.136 -2.15,3.591 -1.339,0.457 -1.728,-0.652 -2.161,-2.139 l -8.378,-29.422 c -0.222,-0.731 -0.266,-1.645 -0.266,-2.507 l 0.006,-10.466 c 0.001,-2.12 0.625,-3.476 2.222,-3.897 1.59,-0.418 2.205,0.605 2.204,2.71 l -0.006,10.528 6.386,23.072 z"
         style="fill:#d788ff" />
      <path
         inkscape:connector-curvature="0"
         id="path94"
         d="m 345.413,111.802 c 1.014,-0.336 1.947,0.221 1.946,2.446 -10e-4,2.227 -0.935,3.411 -1.949,3.757 l -17.85,6.09 0.027,-49.659 17.849,-4.693 c 1.014,-0.267 1.947,0.353 1.946,2.58 -0.001,2.225 -0.935,3.346 -1.949,3.623 l -13.74,3.751 -0.008,15.157 5.946,-1.766 c 1.04,-0.309 1.997,0.283 1.995,2.537 -10e-4,2.255 -0.959,3.425 -1.999,3.744 l -5.946,1.826 -0.008,15.157 z"
         style="fill:#d788ff" />
      <path
         inkscape:connector-curvature="0"
         id="path96"
         d="m 357.988,66.442 c 1.608,-0.423 1.682,1.133 1.606,4.062 l -0.684,20.995 c -0.076,2.146 -0.377,4 -1.915,4.479 -1.546,0.481 -1.848,-1.196 -1.923,-3.309 l -0.671,-20.761 c -0.112,-2.904 0.04,-4.533 1.667,-4.961 z m -0.509,38.931 c 1.424,-0.466 2.096,0.466 2.094,2.769 l -10e-4,1.576 c -10e-4,2.303 -0.674,3.684 -2.098,4.17 l -0.978,0.334 c -1.435,0.49 -2.117,-0.439 -2.116,-2.762 l 10e-4,-1.589 c 0.001,-2.323 0.684,-3.708 2.12,-4.177 z"
         style="fill:#d788ff" />
    </g>
    <g
       id="g3825"
       transform="translate(-322)">
      <text
         xml:space="preserve"
         style="font-style:normal;font-variant:normal;font-weight:bold;font-stretch:normal;line-height:0%;font-family:'DejaVu Sans';-inkscape-font-specification:'DejaVu Sans Bold';text-align:start;letter-spacing:0px;word-spacing:0px;writing-mode:lr-tb;text-anchor:start;fill:#ffffff;fill-opacity:1;stroke:none"
         x="360.74557"
         y="631.14252"
         id="text3002"
         transform="scale(1.0000015,0.9999985)"><tspan
           id="tspan3037"
           style="font-style:normal;font-variant:normal;font-weight:bold;font-stretch:normal;font-size:16px;line-height:100%;font-family:'DejaVu Sans';-inkscape-font-specification:'DejaVu Sans Bold';text-align:start;writing-mode:lr-tb;text-anchor:start;fill:#e6e6e6"
           sodipodi:role="line"
           x="360.74557"
           y="631.14252">MateriApps LIVE! @MA_VERSION@</tspan><tspan
           id="tspan3047"
           style="font-style:normal;font-variant:normal;font-weight:bold;font-stretch:normal;font-size:14px;line-height:100%;font-family:'DejaVu Sans';-inkscape-font-specification:'DejaVu Sans Bold';text-align:start;writing-mode:lr-tb;text-anchor:start;fill:#e6e6e6"
           sodipodi:role="line"
           x="360.74557"
           y="638.10345" /><tspan
           id="tspan3066"
           style="font-style:normal;font-variant:normal;font-weight:bold;font-stretch:normal;font-size:14px;line-height:1;font-family:'DejaVu Sans';-inkscape-font-specification:'DejaVu Sans Bold'"
           sodipodi:role="line"
           x="360.74557"
           y="638.10345" /></text>
      <text
         xml:space="preserve"
         style="font-style:normal;font-variant:normal;font-weight:bold;font-stretch:normal;line-height:0%;font-family:'DejaVu Sans';-inkscape-font-specification:'DejaVu Sans Bold';text-align:start;letter-spacing:0px;word-spacing:0px;writing-mode:lr-tb;text-anchor:start;fill:#ffffff;fill-opacity:1;stroke:none"
         x="360.76697"
         y="649.00757"
         id="text3002-3"
         transform="scale(1.0000015,0.9999985)"><tspan
           id="tspan3039-5"
           style="font-style:normal;font-variant:normal;font-weight:bold;font-stretch:normal;font-size:12px;line-height:100%;font-family:'DejaVu Sans';-inkscape-font-specification:'DejaVu Sans Bold';text-align:start;writing-mode:lr-tb;text-anchor:start;fill:#e6e6e6"
           sodipodi:role="line"
           x="360.76697"
           y="649.00757">Build @YEAR@-@MONTH@-@DAY@ @HOUR@:@MINUTE@:@SECOND@</tspan><tspan
           id="tspan3098-3"
           style="font-style:normal;font-variant:normal;font-weight:bold;font-stretch:normal;font-size:12px;line-height:1;font-family:'DejaVu Sans';-inkscape-font-specification:'DejaVu Sans Bold'"
           sodipodi:role="line"
           x="360.76697"
           y="661.00757">@PROJECT@</tspan><tspan
           id="tspan3753-5"
           style="font-style:normal;font-variant:normal;font-weight:bold;font-stretch:normal;font-size:12px;line-height:1;font-family:'DejaVu Sans';-inkscape-font-specification:'DejaVu Sans Bold'"
           sodipodi:role="line"
           x="360.76697"
           y="673.00757">VirtualBox @VB_VERSION@ </tspan><tspan
           id="tspan3012-6"
           style="font-style:normal;font-variant:normal;font-weight:bold;font-stretch:normal;font-size:12px;line-height:1;font-family:'DejaVu Sans';-inkscape-font-specification:'DejaVu Sans Bold'"
           sodipodi:role="line"
           x="360.76697"
           y="679.00757" /><tspan
           id="tspan3755-2"
           style="font-style:normal;font-variant:normal;font-weight:bold;font-stretch:normal;font-size:12px;line-height:1;font-family:'DejaVu Sans';-inkscape-font-specification:'DejaVu Sans Bold'"
           sodipodi:role="line"
           x="360.76697"
           y="685.00757">Packer @PACKER_VERSION@</tspan><tspan
           id="tspan3066-9"
           style="font-style:normal;font-variant:normal;font-weight:bold;font-stretch:normal;font-size:14px;line-height:1;font-family:'DejaVu Sans';-inkscape-font-specification:'DejaVu Sans Bold'"
           sodipodi:role="line"
           x="360.76697"
           y="698.5271"> </tspan></text>
    </g>
  </g>
</svg>
