<?xml version="1.0" encoding="iso-8859-1"?>
<!-- Generator: Adobe Illustrator 17.0.0, SVG Export Plug-In . SVG Version: 6.00 Build 0)  -->
<!DOCTYPE svg PUBLIC "-//W3C//DTD SVG 1.1//EN" "http://www.w3.org/Graphics/SVG/1.1/DTD/svg11.dtd">
<svg version="1.1" id="&#x30EC;&#x30A4;&#x30E4;&#x30FC;_1"
	 xmlns="http://www.w3.org/2000/svg" xmlns:xlink="http://www.w3.org/1999/xlink" x="0px" y="0px" width="445px" height="190px"
	 viewBox="0 0 445 190" style="enable-background:new 0 0 445 190;" xml:space="preserve">
<rect x="-5" y="-2" width="456" height="194"/>
<path style="fill:none;" d="M220.928,75.288c-1.555-2.298-3.59-3.635-6.096-4.019c-2.503-0.383-4.517,0.296-6.053,2.031
	c-1.456,1.673-2.18,3.969-2.18,6.894c0,2.947,0.716,5.521,2.153,7.731c0.601,0.909,1.279,1.672,2.029,2.298
	c2.175-0.234,4.365-0.478,6.565-0.747c1.473-0.181,2.952-0.37,4.437-0.567c0.951-1.575,1.436-3.52,1.436-5.843
	C223.218,80.1,222.453,77.505,220.928,75.288z"/>
<polygon style="fill:none;" points="179.452,59.146 174.642,73.855 184.322,75.493 "/>
<path style="fill:none;" d="M250.984,76.805c-2.822-0.432-5.092,0.269-6.821,2.095c-1.56,1.675-2.365,3.962-2.441,6.853
	c4.341-0.816,8.716-1.726,13.11-2.77c1.214-0.296,2.428-0.605,3.645-0.922c-0.191-0.314-0.395-0.621-0.614-0.923
	C256.106,78.679,253.811,77.238,250.984,76.805z"/>
<path style="fill:#ECEFE8;" d="M89.787,94.86c-22.84-5.284-36.616-8.134-36.616-7.506c0,0.65,14.801,4.963,39.214,11.492
	c-0.669-0.596-1.271-1.353-1.775-2.223C90.295,96.078,90.022,95.483,89.787,94.86z"/>
<path style="fill:#FFFFFF;" d="M199.604,108.962l7.323,1.637V96.102c-2.458,0.246-4.899,0.472-7.323,0.679V108.962z"/>
<path style="fill:#FFFFFF;" d="M227.199,70.567c-2.809-4.282-6.4-6.714-10.748-7.318c-3.655-0.508-6.825,0.645-9.525,3.434v-3.858
	l-7.323-1.029v29.502c3.686-0.312,7.411-0.67,11.177-1.074c-0.75-0.626-1.428-1.389-2.029-2.298
	c-1.437-2.209-2.153-4.783-2.153-7.731c0-2.925,0.725-5.221,2.18-6.894c1.536-1.735,3.55-2.414,6.053-2.031
	c2.506,0.384,4.54,1.721,6.096,4.019c1.525,2.217,2.29,4.812,2.29,7.778c0,2.323-0.485,4.269-1.436,5.843
	c3.052-0.403,6.129-0.84,9.228-1.32c0.121-0.98,0.185-1.999,0.185-3.06C231.196,79.281,229.859,74.618,227.199,70.567z"/>
<path style="fill:#FFFFFF;" d="M208.474,95.945c2.353,2.521,4.935,4.074,7.753,4.645c4.267,0.866,7.867-0.325,10.769-3.604
	c0.967-1.102,1.765-2.325,2.4-3.664c-3.656,0.544-7.278,1.039-10.863,1.486C215.148,95.228,211.794,95.603,208.474,95.945z"/>
<path style="fill:#FFFFFF;" d="M252.809,68.302c-4.122-0.573-7.693,0.622-10.734,3.556v-4.094l-8.238-1.158v20.526
	c2.614-0.426,5.243-0.884,7.884-1.381c0.076-2.89,0.881-5.178,2.441-6.853c1.73-1.825,4-2.527,6.821-2.095
	c2.827,0.433,5.123,1.874,6.879,4.332c0.219,0.302,0.423,0.609,0.614,0.923c2.832-0.738,5.667-1.536,8.481-2.432
	c-0.573-1.191-1.241-2.34-2.009-3.445C261.774,71.603,257.717,68.985,252.809,68.302z"/>
<path style="fill:#FFFFFF;" d="M272.496,77.718c0.647-0.241,1.294-0.484,1.937-0.738c3.116-1.249,6.196-2.659,8.955-4.413
	c-3.178-0.368-5.875,0.245-8.091,1.849C274.042,75.317,273.111,76.418,272.496,77.718z"/>
<path style="fill:#75AD0A;" d="M117.228,53.073c0.076-0.105,0.15-0.212,0.229-0.315c0.084-0.111,0.17-0.214,0.256-0.32
	c-0.368,0.056-0.735,0.115-1.102,0.172v0.566C116.816,53.143,117.021,53.108,117.228,53.073z"/>
<path style="fill:#75AD0A;" d="M88.953,90.023c-3.657-0.654-7.257-1.415-10.797-2.337c-3.548-0.94-7.043-2.027-10.431-3.545
	c-1.67-0.761-3.322-1.621-4.879-2.764c-0.77-0.572-1.521-1.218-2.173-2.009c-0.645-0.779-1.189-1.756-1.292-2.769
	c-0.118-1.013,0.212-2.047,0.684-2.891c0.476-0.856,1.081-1.578,1.719-2.229c1.26-1.269,2.665-2.279,4.109-3.193l-0.264-1.292
	c-0.002,0.001-0.003,0.002-0.005,0.003c-1.516,0.923-3,1.941-4.37,3.283c-0.678,0.675-1.333,1.427-1.889,2.402
	c-0.275,0.489-0.527,1.04-0.705,1.697c-0.177,0.651-0.27,1.442-0.185,2.262c0.08,0.82,0.332,1.601,0.64,2.238
	c0.31,0.643,0.672,1.175,1.046,1.644c0.754,0.935,1.56,1.639,2.374,2.266c1.642,1.244,3.332,2.158,5.036,2.973
	c3.452,1.624,6.979,2.797,10.558,3.825c3.6,1.016,7.256,1.873,10.968,2.612c-0.095-0.634-0.151-1.28-0.151-1.932
	C88.945,90.184,88.952,90.105,88.953,90.023z"/>
<path style="fill:#75AD0A;" d="M75.246,62.493c-0.524,0.2-1.046,0.405-1.566,0.613l-0.311,1.36c0.706-0.302,1.417-0.596,2.132-0.882
	c0.389-0.153,0.781-0.297,1.173-0.446l-0.122-1.118C76.116,62.178,75.679,62.33,75.246,62.493z"/>
<path style="fill:#75AD0A;" d="M147.389,49.203c1.842-0.173,3.699-0.334,5.569-0.49c-0.013-0.078-0.029-0.156-0.039-0.235
	c-1.869,0.146-3.723,0.297-5.564,0.454c-5.573,0.49-11.018,1.052-16.336,1.692c0.19,0.116,0.378,0.236,0.564,0.362
	C136.731,50.321,141.999,49.722,147.389,49.203z"/>
<path style="fill:#75AD0A;" d="M291.997,65.888l-0.003-0.017c-0.187-1.162-0.748-2.26-1.444-3.165
	c-0.701-0.909-1.525-1.664-2.38-2.325c-1.713-1.311-3.553-2.283-5.397-3.128c-3.672-1.654-7.399-2.797-11.089-3.771
	c-7.263-1.879-14.412-3.045-21.392-3.96c-13.509-1.729-26.427-2.417-38.77-2.728c-11.727-0.301-22.957-0.121-33.729,0.244
	c-0.106,0.004-0.212,0.007-0.318,0.01c-0.552,0.02-1.103,0.044-1.653,0.065c-4.19,0.161-8.31,0.372-12.363,0.622
	c0.005,0.069,0.014,0.138,0.018,0.206c4.026-0.254,8.119-0.465,12.28-0.629c1.107-0.043,2.219-0.083,3.335-0.12
	c10.38-0.339,21.19-0.379,32.453-0.027c12.343,0.415,25.26,1.288,38.731,3.162c6.957,0.993,14.079,2.241,21.264,4.188
	c3.646,1.005,7.323,2.181,10.874,3.829c1.781,0.837,3.539,1.798,5.102,3.021c1.546,1.208,2.941,2.792,3.209,4.562
	c0.28,1.796-0.61,3.442-1.761,4.763c-0.801,0.915-1.736,1.71-2.728,2.438c-0.452,0.331-0.912,0.653-1.382,0.957
	c-3.008,1.918-6.292,3.383-9.6,4.678c-1.151,0.443-2.309,0.858-3.469,1.26c-1.353,0.47-2.709,0.919-4.069,1.34
	c-2.793,0.864-5.599,1.63-8.398,2.337c-1.314,0.332-2.627,0.653-3.938,0.962c-4.565,1.069-9.116,1.966-13.624,2.764
	c-1.902,0.337-3.795,0.661-5.681,0.965c-0.745,0.119-1.491,0.229-2.234,0.342c-1.032,0.159-2.061,0.317-3.088,0.466
	c-3.456,0.503-6.884,0.953-10.281,1.362c-0.939,0.114-1.873,0.229-2.807,0.335c-1.661,0.19-3.314,0.37-4.959,0.542
	c-4.422,0.463-8.788,0.862-13.099,1.204c-1.018,0.081-2.033,0.158-3.044,0.233c-2.331,0.171-4.646,0.324-6.944,0.463
	c-2.002,0.121-3.992,0.234-5.97,0.331c-10.532,0.544-20.713,0.804-30.543,0.843c-18.611,0.059-36.047-0.722-52.382-2.721
	c-0.076-0.009-0.152-0.02-0.229-0.03c0.041,0.416,0.069,0.835,0.069,1.257c0,0.379-0.023,0.744-0.056,1.102
	c0.111,0.016,0.221,0.034,0.332,0.049c8.072,1.133,16.406,1.946,25.005,2.475c8.909,0.546,18.124,0.867,27.638,0.872
	c13.692,0.034,28.047-0.517,43.058-1.804c0.284-0.025,0.568-0.052,0.853-0.077c0.735-0.064,1.473-0.131,2.212-0.199
	c2.423-0.223,4.864-0.466,7.323-0.728c0.146-0.015,0.292-0.031,0.438-0.046c3.58-0.384,7.197-0.807,10.851-1.278
	c3.914-0.519,7.87-1.095,11.866-1.734c1.249-0.199,2.5-0.407,3.756-0.62c2.72-0.463,5.457-0.957,8.208-1.494
	c4.602-0.897,9.247-1.902,13.926-3.046c1.317-0.327,2.637-0.668,3.959-1.019c2.786-0.74,5.579-1.54,8.364-2.438
	c1.106-0.357,2.208-0.733,3.31-1.121c1.453-0.513,2.903-1.049,4.346-1.625c3.341-1.357,6.664-2.885,9.761-4.916
	c0.769-0.513,1.526-1.056,2.249-1.655c0.733-0.607,1.43-1.27,2.066-2.015c0.629-0.745,1.195-1.579,1.587-2.552
	C292.004,68.188,292.192,67.025,291.997,65.888z"/>
<polygon style="fill:#FFFFFF;" points="76.012,48.274 77.278,59.82 77.278,59.82 76.012,48.273 72.999,61.487 72.999,61.488 "/>
<rect x="66.043" y="68.619" transform="matrix(0.2004 0.9797 -0.9797 0.2004 120.7157 -10.6743)" style="fill:#FFFFFF;" width="1.71" height="0"/>
<rect x="65.442" y="65.674" transform="matrix(0.2005 0.9797 -0.9797 0.2005 117.3445 -12.4414)" style="fill:#FFFFFF;" width="1.706" height="0"/>
<rect x="72.76" y="61.461" style="fill:#FFFFFF;" width="0" height="2.144"/>
<rect x="66.596" y="66.496" style="fill:#FFFFFF;" width="0" height="1.298"/>
<path style="fill:#75AD0A;" d="M97.254,56.237L97.254,56.237c-0.218,0.048-0.436,0.094-0.654,0.143
	c-0.155,0.034-0.309,0.071-0.465,0.106c-2.387,0.538-4.745,1.105-7.071,1.708c-0.365,0.095-0.728,0.189-1.091,0.285
	c-0.028,0.307-0.045,0.624-0.053,0.951c0.347-0.099,0.695-0.198,1.044-0.296c2.467-0.688,4.97-1.334,7.507-1.949
	c0.088-0.02,0.174-0.043,0.262-0.064c0.269-0.064,0.539-0.124,0.808-0.186l0,0C97.454,56.697,97.358,56.465,97.254,56.237z"/>
<rect x="109.802" y="75.522" style="fill:#FFFFFF;" width="0" height="5.248"/>
<polygon style="fill:#FFFFFF;" points="153.143,55.152 153.143,55.15 153.143,55.15 "/>
<polygon style="fill:#FFFFFF;" points="153.143,55.15 153.143,55.15 153.143,55.15 "/>
<path style="fill:#FFFFFF;" d="M183.552,49.703c-1.946,0.054-3.878,0.114-5.795,0.187c-0.959,0.034-1.914,0.082-2.866,0.12
	l-12.233,38.118l-0.231,0.718l0.231,0.046l6.589,1.326l2.877-8.573l14.858,2.74l2.263,7.691c2.292-0.152,4.6-0.317,6.924-0.498
	L183.552,49.703z M174.642,73.855l4.81-14.709l4.87,16.347L174.642,73.855z"/>
<rect x="154.935" y="87.866" transform="matrix(-0.9804 -0.1972 0.1972 -0.9804 295.8515 205.1854)" style="fill:#FFFFFF;" width="6.408" height="0"/>
<polygon style="fill:#FFFFFF;" points="82.057,63.214 81.847,61.299 81.735,60.28 81.525,58.368 78.978,35.163 74.568,34.639 
	69.05,59.069 63.744,33.351 59.567,32.854 55.766,67.279 55.766,67.279 59.869,68.104 62.317,46.23 66.124,64.838 66.466,66.509 
	66.726,67.781 67.069,69.456 67.069,69.456 67.089,69.556 70.98,70.338 71.723,67.082 72.203,64.976 72.522,63.578 72.522,63.578 
	72.999,61.487 76.012,48.273 77.278,59.82 77.482,61.684 77.603,62.784 77.807,64.65 78.599,71.871 83.107,72.777 83.107,72.777 "/>
<path style="fill:#FFFFFF;" d="M98.086,47.422L98.086,47.422v1.014v2.115c-0.343-0.557-0.698-1.063-1.064-1.522
	c-1.485-1.864-3.152-2.922-5-3.178c-2.66-0.369-4.807,0.818-6.453,3.545c-1.358,2.248-2.11,5.048-2.264,8.406
	c-0.02,0.433-0.031,0.874-0.031,1.326l0,0v0c0,0.227,0.003,0.452,0.009,0.675c0.009,0.34,0.025,0.676,0.046,1.01
	c0.041,0.656,0.107,1.302,0.198,1.935c0.351,2.445,1.069,4.725,2.161,6.843c1.704,3.284,3.858,5.198,6.473,5.728
	c1.735,0.352,3.356-0.126,4.861-1.439c0.362-0.315,0.716-0.677,1.064-1.089v2.063v0.934v0l4.948,0.995v0V57.929v-2.213v-0.694V52.81
	v-3.126v-1.567v0L98.086,47.422z M97.712,68.453l-0.006,0.009c-1.179,1.752-2.844,2.465-4.676,2.093
	c-1.787-0.322-3.394-1.687-4.52-3.86c-0.786-1.477-1.284-3.168-1.496-4.963c-0.078-0.655-0.119-1.324-0.12-2.003
	c0-0.02-0.002-0.039-0.002-0.059c-0.001-0.306,0.007-0.606,0.022-0.901c0.036-0.74,0.124-1.443,0.256-2.111
	c0.259-1.316,0.698-2.486,1.328-3.446c1.125-1.745,2.728-2.519,4.515-2.231c1.672,0.233,3.195,1.292,4.336,3.077
	c0.1,0.156,0.201,0.308,0.295,0.475c0.266,0.464,0.497,0.956,0.702,1.467c0.091,0.227,0.174,0.458,0.253,0.692
	c0.222,0.659,0.402,1.345,0.53,2.057c0.175,0.974,0.264,1.989,0.261,3.028C99.395,64.466,98.837,66.788,97.712,68.453z"/>
<polygon style="fill:#FFFFFF;" points="112.374,49.428 112.374,38.653 112.374,38.653 107.23,38.046 107.23,38.046 107.23,48.706 
	104.634,48.341 104.634,48.342 104.634,52.479 104.634,54.581 104.634,54.581 104.991,54.636 106.907,54.93 107.23,54.98 
	107.23,57.116 107.23,77.628 112.374,78.662 112.374,56.195 112.374,55.769 113.699,55.973 115.461,56.243 115.461,56.243 
	115.461,55.684 115.461,53.371 115.461,52.794 115.461,51.469 115.461,50.48 115.461,49.861 115.461,49.861 "/>
<path style="fill:#FFFFFF;" d="M134.896,56.414L134.896,56.414c-0.794-1.207-1.67-2.225-2.625-3.063
	c-1.001-0.878-2.09-1.554-3.265-2.026c-0.311-0.125-0.627-0.237-0.95-0.334c-0.561-0.168-1.139-0.297-1.736-0.379
	c-2.344-0.325-4.372,0.164-6.093,1.45c-0.267,0.199-0.529,0.417-0.781,0.656c-0.402,0.379-0.786,0.805-1.152,1.282
	c-0.334,0.437-0.637,0.899-0.917,1.382c-0.283,0.489-0.539,1.001-0.766,1.537c-0.144,0.341-0.279,0.691-0.401,1.051
	c-0.66,1.954-0.991,4.194-0.991,6.724v0l0,0c0,4.505,1.052,8.379,3.172,11.643c2.138,3.293,4.875,5.287,8.231,5.967
	c3.916,0.794,7.033-0.365,9.327-3.494c0.275-0.374,0.54-0.772,0.791-1.203l0,0l0,0l-0.002-0.001l-1.151-0.944l-3.632-2.98
	c-1.507,1.694-3.295,2.341-5.361,1.95c-1.661-0.314-3.046-1.183-4.16-2.604c-0.815-1.04-1.398-2.301-1.755-3.778
	c-0.129-0.531-0.229-1.089-0.298-1.677l1.197,0.21l16.679,2.921l0.022-1.469v0C138.349,64.242,137.216,59.96,134.896,56.414z
	 M121.923,61.921l-1.306-0.213c0.2-0.571,0.406-1.077,0.618-1.526c0.427-0.908,0.878-1.573,1.354-1.983
	c1.138-0.985,2.467-1.364,3.992-1.133c1.358,0.206,2.589,0.898,3.689,2.078c0.728,0.78,1.297,1.701,1.713,2.756
	c0.216,0.547,0.393,1.128,0.524,1.748l-1.296-0.211L121.923,61.921z"/>
<path style="fill:#FFFFFF;" d="M150.674,53.991c-1.603-0.222-2.914,0.316-3.941,1.604c-0.499,0.626-0.932,1.426-1.297,2.407v-3.231
	v-0.703v0l-5.062-0.71v0v30.935v0l5.869,1.18v0v-12.64v0l-0.022-1.527c-0.004-0.265-0.006-0.525-0.006-0.779
	c-0.011-3.817,0.311-6.437,0.964-7.861c0.626-1.401,1.399-2.032,2.322-1.891c0.153,0.023,0.327,0.086,0.508,0.167
	c0.358,0.158,0.767,0.416,1.236,0.795l0.451-1.564l0.999-3.47l0.448-1.551l0-0.002v0C152.281,54.485,151.458,54.1,150.674,53.991z"
	/>
<polygon style="fill:#FFFFFF;" points="154.998,55.41 154.998,55.41 154.998,87.234 161.28,88.497 161.28,58.052 161.28,56.292 
	161.28,56.292 "/>
<path style="fill:#75AD0A;" d="M99.418,91.619c-0.047-0.439-0.121-0.871-0.22-1.292c-0.67-2.869-2.445-5.207-4.518-5.667
	c-2.228-0.494-4.076,1.344-4.572,4.253c-0.07,0.409-0.112,0.84-0.126,1.288c-0.003,0.103-0.01,0.204-0.01,0.31
	c0,0.641,0.064,1.275,0.174,1.891c0.085,0.471,0.199,0.93,0.34,1.373c0.154,0.48,0.335,0.942,0.548,1.375
	c0.861,1.755,2.17,3.07,3.646,3.441c1.514,0.381,2.87-0.317,3.754-1.715c0.305-0.483,0.552-1.052,0.73-1.687
	c0.108-0.386,0.191-0.796,0.244-1.229c0.048-0.384,0.077-0.782,0.077-1.197C99.487,92.378,99.459,91.996,99.418,91.619z"/>
<path style="fill:#75AD0A;" d="M161.471,49.08c-0.007-0.056-0.012-0.113-0.02-0.169c-0.071-0.473-0.199-0.926-0.374-1.347
	c0-0.001,0-0.001-0.001-0.002c-0.109-0.263-0.236-0.512-0.379-0.746c-0.106-0.174-0.223-0.338-0.346-0.492
	c-0.611-0.769-1.411-1.289-2.286-1.391c-1.04-0.12-1.965,0.372-2.587,1.239c0,0.001-0.001,0.001-0.001,0.002
	c-0.222,0.309-0.406,0.666-0.541,1.061c-0.173,0.505-0.269,1.072-0.269,1.681c0,0.159,0.007,0.317,0.02,0.473
	c0.005,0.063,0.015,0.126,0.022,0.189c0.086,0.751,0.314,1.46,0.649,2.075c0.619,1.135,1.597,1.952,2.707,2.103
	c1.495,0.204,2.773-0.859,3.25-2.521c0.129-0.447,0.202-0.935,0.202-1.456C161.517,49.543,161.499,49.31,161.471,49.08z"/>
<path style="fill:#ECEFE8;" d="M373.291,126.511c-0.709-0.937-27.989,8.083-60.931,20.148
	c-32.942,12.064-59.071,22.604-58.362,23.541c0.709,0.937,27.989-8.083,60.931-20.148C347.87,137.988,374,127.448,373.291,126.511z"
	/>
<path style="fill:#ECEFE8;" d="M148.664,108.965c-18.786-4.613-35.288-8.579-48.929-11.785c-0.255,0.565-0.559,1.071-0.91,1.493
	c-0.545,0.655-1.197,1.126-1.92,1.377c14.179,3.768,31.667,8.313,51.759,13.421c35.914,9.131,72.658,18.166,100.948,24.858
	l0.002-3.767C221.323,127.115,184.578,117.784,148.664,108.965z"/>
<path style="fill:#ECEFE8;" d="M261.349,137.61c-0.774-0.207-1.349-0.415-2.349-0.626v1.404L261.349,137.61z"/>
<path style="fill:#ECEFE8;" d="M274.836,144.178c15.605,3.521,25.172,5.426,25.172,4.861c0-0.534-8.562-3.138-22.699-7.04
	C276.646,143.082,275.744,143.8,274.836,144.178z"/>
<path style="fill:#FFFFFF;" d="M258.776,107.877c2.199-0.573,4.186-1.758,5.941-3.604c3.16-3.348,4.751-7.755,4.751-13.197
	c0-2.163-0.23-4.236-0.685-6.219c-2.832,0.881-5.664,1.663-8.485,2.383c0.098,0.708,0.15,1.436,0.15,2.187
	c0,2.531-0.576,4.633-1.703,6.314c0.022,0.273,0.037,0.556,0.036,0.859L258.776,107.877z"/>
<path style="fill:#FFFFFF;" d="M244.131,94.42c-0.701-1.023-1.158-2.12-1.555-3.284c-2.904,0.543-5.576,1.039-8.576,1.5v23.98
	l8,1.841v-17.5c2,2.875,4.857,4.902,7.591,6.081l0.023-8.436C247.393,97.884,245.577,96.496,244.131,94.42z"/>
<path style="fill:#FFFFFF;" d="M283.776,105.44c-2.785-0.527-5.399-2.54-7.843-6.021l-5.683,5.495
	c3.196,5.062,7.524,8.164,13.027,9.28c0.904,0.184,1.772,0.296,2.609,0.349l0.005-9.107
	C285.242,105.582,284.537,105.584,283.776,105.44z"/>
<path style="fill:#FFFFFF;" d="M297.284,104.413c0-3.045-0.925-5.809-2.75-8.285l-0.009,15.631
	C296.351,110.002,297.284,107.559,297.284,104.413z"/>
<path style="fill:#FFFFFF;" d="M280.459,84.759l0.396-0.104c-0.258-0.404-0.398-0.78-0.398-1.123c0-1.645,1.131-2.295,3.404-1.948
	c0.991,0.151,2.043,0.636,3.155,1.451l9.221-2.424c-1.774-2.568-3.846-4.537-6.215-5.898c-1.014,0.912-2.08,1.679-3.156,2.386
	c-3.266,2.101-6.676,3.625-10.093,4.98c-1.674,0.651-3.351,1.256-5.03,1.822c0.476,2.965,2.153,5.808,5.017,8.547
	c-0.117-0.512-0.186-1.069-0.186-1.688C276.575,87.088,278.582,85.253,280.459,84.759z"/>
<path style="fill:#FFFFFF;" d="M281.49,95.474c-0.286,0.078-0.568,0.115-0.847,0.133l3.168,2.215
	c0.819,0.569,1.504,1.121,2.083,1.659l0.003-5.21L281.49,95.474z"/>
<path style="fill:#D788FF;" d="M273.913,135.477c1.263-0.418,2.424,0.163,2.423,2.645c-0.001,2.484-1.164,3.846-2.426,4.277
	l-22.305,7.61l0.029-52.029c0.001-2.287,0.728-3.765,2.586-4.253c1.849-0.486,2.564,0.603,2.563,2.873l-0.024,44.558
	L273.913,135.477z"/>
<path style="fill:#D788FF;" d="M292.516,129.317l6.703-2.22c1.172-0.388,2.248,0.185,2.247,2.577
	c-0.001,2.393-1.079,3.691-2.251,4.09l-18.278,6.236c-1.242,0.424-2.391-0.146-2.39-2.622c0.001-2.474,1.152-3.818,2.394-4.229
	l6.936-2.297l0.021-39.202l-6.936,1.893c-1.242,0.339-2.391-0.309-2.39-2.784c0.001-2.476,1.152-3.741,2.394-4.067l18.277-4.806
	c1.172-0.308,2.248,0.339,2.247,2.732c-0.001,2.392-1.079,3.616-2.251,3.936l-6.703,1.83L292.516,129.317z"/>
<path style="fill:#D788FF;" d="M320.64,89.811l0.006-10.324c0.001-2.065,0.593-3.382,2.109-3.781
	c1.508-0.396,2.092,0.604,2.091,2.655l-0.006,10.128c0,0.833-0.043,1.742-0.252,2.572l-8.093,33.951
	c-0.43,1.769-0.816,3.136-2.15,3.591c-1.339,0.457-1.728-0.652-2.161-2.139l-8.378-29.422c-0.222-0.731-0.266-1.645-0.266-2.507
	l0.006-10.466c0.001-2.12,0.625-3.476,2.222-3.897c1.59-0.418,2.205,0.605,2.204,2.71l-0.006,10.528l6.386,23.072L320.64,89.811z"/>
<path style="fill:#D788FF;" d="M345.413,111.802c1.014-0.336,1.947,0.221,1.946,2.446c-0.001,2.227-0.935,3.411-1.949,3.757
	l-17.85,6.09l0.027-49.659l17.849-4.693c1.014-0.267,1.947,0.353,1.946,2.58c-0.001,2.225-0.935,3.346-1.949,3.623l-13.74,3.751
	l-0.008,15.157l5.946-1.766c1.04-0.309,1.997,0.283,1.995,2.537c-0.001,2.255-0.959,3.425-1.999,3.744l-5.946,1.826l-0.008,15.157
	L345.413,111.802z"/>
<path style="fill:#D788FF;" d="M357.988,66.442c1.608-0.423,1.682,1.133,1.606,4.062l-0.684,20.995
	c-0.076,2.146-0.377,4-1.915,4.479c-1.546,0.481-1.848-1.196-1.923-3.309l-0.671-20.761c-0.112-2.904,0.04-4.533,1.667-4.961
	L357.988,66.442z M357.479,105.373c1.424-0.466,2.096,0.466,2.094,2.769l-0.001,1.576c-0.001,2.303-0.674,3.684-2.098,4.17
	l-0.978,0.334c-1.435,0.49-2.117-0.439-2.116-2.762l0.001-1.589c0.001-2.323,0.684-3.708,2.12-4.177L357.479,105.373z"/>
</svg>
