<?xml version="1.0" encoding="UTF-8" standalone="no"?>
<!-- Created with Inkscape (http://www.inkscape.org/) -->

<svg
   xmlns:dc="http://purl.org/dc/elements/1.1/"
   xmlns:cc="http://creativecommons.org/ns#"
   xmlns:rdf="http://www.w3.org/1999/02/22-rdf-syntax-ns#"
   xmlns:svg="http://www.w3.org/2000/svg"
   xmlns="http://www.w3.org/2000/svg"
   xmlns:sodipodi="http://sodipodi.sourceforge.net/DTD/sodipodi-0.dtd"
   xmlns:inkscape="http://www.inkscape.org/namespaces/inkscape"
   width="640"
   height="480"
   id="svg3320"
   version="1.1"
   inkscape:version="0.48.3.1 r9886"
   sodipodi:docname="splash.svg">
  <defs
     id="defs3322">
    <linearGradient
       id="linearGradient5012">
      <stop
         id="stop5014"
         offset="0"
         style="stop-color:#fdf188;stop-opacity:1;" />
      <stop
         id="stop5016"
         offset="1"
         style="stop-color:#d3bc00;stop-opacity:1;" />
    </linearGradient>
    <linearGradient
       id="linearGradient8543">
      <stop
         id="stop8545"
         offset="0"
         style="stop-color:#fffef5;stop-opacity:0.94117647;" />
      <stop
         id="stop8547"
         offset="1"
         style="stop-color:#fce94f;stop-opacity:0;" />
    </linearGradient>
    <linearGradient
       id="linearGradient11202">
      <stop
         id="stop11204"
         offset="0"
         style="stop-color:#c4a000;stop-opacity:1;" />
      <stop
         id="stop11206"
         offset="1"
         style="stop-color:#c4a000;stop-opacity:0;" />
    </linearGradient>
    <linearGradient
       id="linearGradient18284">
      <stop
         id="stop18286"
         offset="0"
         style="stop-color:#000000;stop-opacity:1;" />
      <stop
         style="stop-color:#000000;stop-opacity:1;"
         offset="0.5"
         id="stop20913" />
      <stop
         style="stop-color:#000000;stop-opacity:0;"
         offset="1"
         id="stop19165" />
    </linearGradient>
    <inkscape:perspective
       id="perspective47"
       inkscape:persp3d-origin="24 : 16 : 1"
       inkscape:vp_z="48 : 24 : 1"
       inkscape:vp_y="0 : 1000 : 0"
       inkscape:vp_x="0 : 24 : 1"
       sodipodi:type="inkscape:persp3d" />
  </defs>
  <sodipodi:namedview
     id="base"
     pagecolor="#ffffff"
     bordercolor="#666666"
     borderopacity="1.0"
     inkscape:pageopacity="0.0"
     inkscape:pageshadow="2"
     inkscape:zoom="0.775"
     inkscape:cx="657.45435"
     inkscape:cy="305.24687"
     inkscape:document-units="px"
     inkscape:current-layer="layer1"
     showgrid="false"
     inkscape:window-width="1365"
     inkscape:window-height="855"
     inkscape:window-x="0"
     inkscape:window-y="27"
     inkscape:window-maximized="1" />
  <metadata
     id="metadata3325">
    <rdf:RDF>
      <cc:Work
         rdf:about="">
        <dc:format>image/svg+xml</dc:format>
        <dc:type
           rdf:resource="http://purl.org/dc/dcmitype/StillImage" />
        <dc:title />
      </cc:Work>
    </rdf:RDF>
  </metadata>
  <g
     inkscape:label="Layer 1"
     inkscape:groupmode="layer"
     id="layer1"
     transform="translate(0,-572.3622)">
    <rect
       style="fill:#000000;fill-opacity:1;stroke:none"
       id="rect3328"
       width="640"
       height="480"
       x="0"
       y="572.36218" />
    <text
       xml:space="preserve"
       style="font-size:40px;font-style:normal;font-weight:normal;line-height:125%;letter-spacing:0px;word-spacing:0px;fill:#000000;fill-opacity:1;stroke:none;font-family:Sans"
       x="200"
       y="336.7742"
       id="text3114"
       sodipodi:linespacing="125%"
       transform="translate(0,572.3622)"><tspan
         sodipodi:role="line"
         id="tspan3116" /></text>
    <g
       id="レイヤー_11"
       transform="matrix(1.2507123,0,0,1.2507123,-541.52416,527.03588)">
      <path
         class="st4"
         d="m 717.621,90.612 c -1.729,-1.98 -4.003,-2.972 -6.827,-2.972 -2.845,0 -5.152,0.97 -6.923,2.909 -1.686,1.876 -2.529,4.258 -2.529,7.146 0,2.909 0.832,5.321 2.498,7.24 0.693,0.784 1.475,1.41 2.336,1.887 2.487,-0.624 4.972,-1.259 7.45,-1.913 1.648,-0.436 3.296,-0.879 4.94,-1.327 1.051,-1.677 1.584,-3.626 1.584,-5.855 0,-2.846 -0.842,-5.217 -2.529,-7.115 z"
         id="path3460"
         inkscape:connector-curvature="0"
         style="fill:none" />
      <polygon
         class="st4"
         points="674.359,96.775 668.168,80.695 661.943,96.775 "
         id="polygon3462"
         style="fill:none" />
      <path
         class="st4"
         d="m 749.322,87.641 c -2.845,0 -5.152,0.97 -6.922,2.909 -1.605,1.785 -2.437,4.033 -2.515,6.734 4.458,-1.436 8.888,-2.942 13.274,-4.554 1.201,-0.448 2.397,-0.906 3.592,-1.37 -0.188,-0.257 -0.387,-0.506 -0.602,-0.748 -1.727,-1.98 -4.003,-2.971 -6.827,-2.971 z"
         id="path3464"
         inkscape:connector-curvature="0"
         style="fill:none" />
      <path
         class="st4"
         d="m 740.685,102.163 c 0.409,1.015 0.964,1.942 1.683,2.772 1.771,2.002 4.089,3.004 6.955,3.004 2.781,0 5.057,-1.023 6.828,-3.068 1.686,-1.938 2.528,-4.319 2.528,-7.145 0,-0.678 -0.051,-1.327 -0.146,-1.951 -1.232,0.482 -2.467,0.959 -3.704,1.425 -4.685,1.758 -9.403,3.403 -14.144,4.963 z"
         id="path3466"
         inkscape:connector-curvature="0"
         style="fill:none" />
      <path
         class="st3"
         d="m 693.097,127.635 h 8.626 v -14.303 c -2.871,0.729 -5.746,1.438 -8.626,2.13 v 12.173 z"
         id="path3468"
         inkscape:connector-curvature="0"
         style="fill:#ffffff" />
      <path
         class="st3"
         d="m 724.5,85.167 c -3.063,-3.7 -7.021,-5.551 -11.879,-5.551 -4.141,0 -7.773,1.566 -10.898,4.694 v -3.806 h -8.626 v 29.479 c 4.37,-1.015 8.729,-2.069 13.079,-3.161 -0.861,-0.477 -1.643,-1.103 -2.336,-1.887 -1.666,-1.919 -2.498,-4.331 -2.498,-7.24 0,-2.888 0.844,-5.27 2.529,-7.146 1.771,-1.939 4.078,-2.909 6.923,-2.909 2.824,0 5.099,0.991 6.827,2.972 1.687,1.897 2.529,4.269 2.529,7.114 0,2.229 -0.533,4.179 -1.584,5.855 3.357,-0.915 6.705,-1.857 10.043,-2.834 0.13,-0.947 0.199,-1.922 0.199,-2.927 10e-4,-4.966 -1.435,-9.185 -4.308,-12.653 z"
         id="path3470"
         inkscape:connector-curvature="0"
         style="fill:#ffffff" />
      <path
         class="st3"
         d="m 703.518,112.877 c 2.711,2.015 5.662,3.022 8.85,3.022 4.772,0 8.744,-1.839 11.911,-5.519 1.049,-1.227 1.911,-2.534 2.597,-3.918 -3.964,1.17 -7.938,2.301 -11.92,3.394 -3.806,1.04 -7.618,2.043 -11.438,3.021 z"
         id="path3472"
         inkscape:connector-curvature="0"
         style="fill:#ffffff" />
      <path
         class="st3"
         d="m 758.679,97.727 c 0,2.825 -0.843,5.206 -2.528,7.145 -1.771,2.045 -4.047,3.068 -6.828,3.068 -2.866,0 -5.184,-1.002 -6.955,-3.004 -0.719,-0.83 -1.273,-1.758 -1.683,-2.772 -3.011,0.991 -6.03,1.945 -9.06,2.87 v 22.602 h 8.627 v -16.271 c 3.189,3.024 6.737,4.536 10.645,4.536 4.771,0 8.743,-1.839 11.91,-5.519 3.02,-3.531 4.529,-7.717 4.529,-12.56 0,-1.925 -0.217,-3.736 -0.648,-5.436 -2.697,1.198 -5.42,2.317 -8.155,3.39 0.095,0.623 0.146,1.273 0.146,1.951 z"
         id="path3474"
         inkscape:connector-curvature="0"
         style="fill:#ffffff" />
      <path
         class="st3"
         d="m 751.148,79.616 c -4.139,0 -7.771,1.566 -10.896,4.694 v -3.806 h -8.627 v 19.344 c 2.764,-0.827 5.518,-1.681 8.261,-2.564 0.078,-2.701 0.909,-4.949 2.515,-6.734 1.77,-1.939 4.077,-2.909 6.922,-2.909 2.824,0 5.1,0.991 6.828,2.972 0.215,0.242 0.414,0.491 0.602,0.748 2.763,-1.073 5.503,-2.19 8.199,-3.382 -0.547,-0.986 -1.187,-1.924 -1.922,-2.812 -3.064,-3.7 -7.022,-5.551 -11.882,-5.551 z"
         id="path3476"
         inkscape:connector-curvature="0"
         style="fill:#ffffff" />
      <path
         class="st3"
         d="m 783.361,83.137 c -2.943,2.241 -6.048,4.021 -9.191,5.671 -1.553,0.803 -3.116,1.57 -4.689,2.307 0.619,3.551 3.358,6.544 8.218,8.982 l 2.913,1.46 c 2.51,1.249 3.766,2.55 3.766,3.906 0,0.866 -0.433,1.565 -1.297,2.095 -0.74,0.424 -1.573,0.635 -2.502,0.635 -2.531,0 -4.928,-1.332 -7.186,-3.996 L 768.075,110 c 3.003,3.933 7.021,5.899 12.052,5.899 3.467,0 6.354,-0.91 8.658,-2.73 2.518,-1.989 3.774,-4.668 3.774,-8.033 0,-2.688 -0.854,-4.974 -2.563,-6.858 -1.266,-1.396 -3.322,-2.805 -6.172,-4.223 l -3.165,-1.587 c -2.067,-1.038 -3.101,-2.001 -3.101,-2.891 0,-1.438 1.032,-2.159 3.097,-2.159 1.771,0 3.739,1.09 5.91,3.268 l 5.36,-5.36 c -1.609,-2.161 -3.525,-3.706 -5.747,-4.641 -0.902,0.911 -1.853,1.706 -2.817,2.452 z"
         id="path3478"
         inkscape:connector-curvature="0"
         style="fill:#ffffff" />
      <path
         class="st2"
         d="m 770.188,85.532 c 0.605,-0.299 1.211,-0.599 1.811,-0.907 2.889,-1.502 5.717,-3.127 8.229,-4.996 -2.894,0.065 -5.373,0.934 -7.426,2.623 -1.169,0.954 -2.038,2.049 -2.614,3.28 z"
         id="path3480"
         inkscape:connector-curvature="0"
         style="fill:#536266" />
      <path
         class="st6"
         d="m 578.146,83.844 c 0.124,-0.136 0.245,-0.272 0.374,-0.406 0.136,-0.144 0.277,-0.279 0.416,-0.418 -0.6,0.129 -1.199,0.26 -1.799,0.39 v 0.662 c 0.336,-0.076 0.672,-0.152 1.009,-0.228 z"
         id="path3482"
         inkscape:connector-curvature="0"
         style="fill:#75ad0a" />
      <path
         class="st6"
         d="m 529.154,134.825 c -6.782,0.263 -13.566,0.378 -20.344,0.271 -6.9,-0.129 -13.809,-0.465 -20.609,-1.4 -3.393,-0.482 -6.773,-1.104 -9.982,-2.134 -1.596,-0.521 -3.158,-1.146 -4.519,-1.995 -1.349,-0.838 -2.493,-1.971 -2.71,-3.283 -0.248,-1.309 0.446,-2.775 1.436,-4.028 0.996,-1.268 2.26,-2.391 3.588,-3.426 2.611,-2.013 5.508,-3.715 8.464,-5.289 l -0.538,-1.621 c -0.004,0.002 -0.007,0.003 -0.01,0.005 -3.108,1.601 -6.17,3.33 -9.018,5.466 -1.415,1.077 -2.786,2.254 -3.955,3.702 -0.58,0.727 -1.109,1.528 -1.484,2.454 -0.373,0.916 -0.57,1.995 -0.391,3.059 0.17,1.066 0.701,2.029 1.35,2.783 0.652,0.76 1.412,1.355 2.195,1.862 1.576,1.007 3.256,1.689 4.945,2.265 3.389,1.129 6.851,1.802 10.314,2.338 6.934,1.036 13.906,1.454 20.868,1.668 6.892,0.188 13.78,0.154 20.661,-0.039 -0.176,-0.758 -0.277,-1.544 -0.277,-2.353 10e-4,-0.103 0.013,-0.202 0.016,-0.305 z"
         id="path3484"
         inkscape:connector-curvature="0"
         style="fill:#75ad0a" />
      <path
         class="st6"
         d="m 503.158,103.755 c -1.026,0.377 -2.051,0.763 -3.073,1.151 l -0.612,1.821 c 1.391,-0.557 2.785,-1.103 4.184,-1.638 0.759,-0.286 1.523,-0.562 2.285,-0.843 l -0.238,-1.397 c -0.849,0.303 -1.7,0.597 -2.546,0.906 z"
         id="path3486"
         inkscape:connector-curvature="0"
         style="fill:#75ad0a" />
      <path
         class="st6"
         d="m 624.49,74.726 c 2.656,-0.453 5.313,-0.892 7.972,-1.324 -0.019,-0.083 -0.04,-0.166 -0.056,-0.251 -2.656,0.421 -5.311,0.847 -7.965,1.281 -8.152,1.351 -16.291,2.791 -24.41,4.333 0.293,0.102 0.583,0.208 0.869,0.322 7.846,-1.544 15.709,-3.003 23.59,-4.361 z"
         id="path3488"
         inkscape:connector-curvature="0"
         style="fill:#75ad0a" />
      <path
         class="st6"
         d="m 787.929,72.86 -0.003,-0.015 c -0.164,-0.98 -0.66,-1.863 -1.277,-2.568 -0.622,-0.711 -1.355,-1.275 -2.118,-1.758 -1.534,-0.959 -3.19,-1.615 -4.86,-2.165 -3.354,-1.077 -6.797,-1.711 -10.244,-2.206 -6.904,-0.957 -13.856,-1.302 -20.799,-1.439 -13.891,-0.237 -27.767,0.45 -41.602,1.475 -13.701,1.01 -27.361,2.493 -40.994,4.174 -0.136,0.017 -0.273,0.033 -0.41,0.05 -0.715,0.089 -1.428,0.183 -2.143,0.273 -5.488,0.696 -10.968,1.447 -16.441,2.244 0.008,0.073 0.02,0.145 0.025,0.218 5.438,-0.799 10.881,-1.549 16.332,-2.246 1.437,-0.183 2.873,-0.362 4.31,-0.539 13.082,-1.604 26.2,-2.898 39.347,-3.812 13.834,-0.932 27.707,-1.457 41.56,-1.096 6.92,0.204 13.847,0.615 20.679,1.63 3.408,0.521 6.808,1.185 10.053,2.263 1.615,0.546 3.201,1.199 4.602,2.097 1.381,0.881 2.621,2.099 2.858,3.594 0.249,1.515 -0.542,3.033 -1.565,4.306 -0.715,0.885 -1.551,1.685 -2.441,2.433 -0.406,0.343 -0.82,0.678 -1.244,1 -2.727,2.044 -5.732,3.747 -8.791,5.318 -1.072,0.546 -2.154,1.067 -3.242,1.58 -1.273,0.603 -2.556,1.188 -3.848,1.752 -2.669,1.166 -5.375,2.256 -8.098,3.3 -1.287,0.495 -2.578,0.98 -3.872,1.457 -4.551,1.669 -9.154,3.2 -13.782,4.657 -1.974,0.621 -3.949,1.232 -5.931,1.828 -0.786,0.236 -1.575,0.462 -2.362,0.694 -1.098,0.322 -2.195,0.645 -3.295,0.96 -3.727,1.068 -7.469,2.093 -11.218,3.086 -1.044,0.275 -2.087,0.555 -3.132,0.824 -1.867,0.485 -3.736,0.961 -5.606,1.43 -5.079,1.275 -10.173,2.496 -15.277,3.668 -1.216,0.279 -2.435,0.557 -3.651,0.83 -2.823,0.634 -5.65,1.252 -8.479,1.856 -2.484,0.532 -4.972,1.057 -7.46,1.566 -13.563,2.803 -27.183,5.334 -40.838,7.642 -27.314,4.599 -54.802,8.249 -82.406,10.38 -0.133,0.012 -0.267,0.019 -0.4,0.029 0.072,0.491 0.121,0.989 0.121,1.5 0,0.458 -0.039,0.907 -0.098,1.351 0.193,-0.013 0.387,-0.023 0.58,-0.036 13.871,-0.947 27.707,-2.31 41.496,-4.022 13.789,-1.714 27.546,-3.695 41.241,-6.022 18.856,-3.176 37.617,-6.94 56.218,-11.389 0.342,-0.082 0.685,-0.166 1.027,-0.248 0.883,-0.213 1.767,-0.428 2.649,-0.644 2.88,-0.703 5.755,-1.424 8.626,-2.16 0.17,-0.043 0.34,-0.087 0.51,-0.131 4.131,-1.063 8.255,-2.157 12.368,-3.29 4.351,-1.214 8.688,-2.474 13.013,-3.782 1.339,-0.405 2.676,-0.817 4.012,-1.233 2.874,-0.896 5.74,-1.815 8.596,-2.771 4.719,-1.577 9.412,-3.233 14.067,-5 1.298,-0.497 2.593,-1.004 3.886,-1.519 2.705,-1.079 5.393,-2.202 8.049,-3.402 1.049,-0.473 2.091,-0.962 3.129,-1.46 1.361,-0.653 2.716,-1.326 4.058,-2.029 3.083,-1.637 6.117,-3.402 8.917,-5.558 0.691,-0.54 1.37,-1.104 2.017,-1.71 0.655,-0.612 1.275,-1.268 1.841,-1.985 0.558,-0.716 1.059,-1.498 1.406,-2.381 0.341,-0.872 0.507,-1.894 0.334,-2.849 z"
         id="path3490"
         inkscape:connector-curvature="0"
         style="fill:#75ad0a" />
      <polygon
         class="st3"
         points="498.742,102.986 504.652,85.424 507.112,99.884 507.112,99.884 504.652,85.423 498.742,102.986 "
         id="polygon3492"
         style="fill:#ffffff" />
      <rect
         x="485.42001"
         y="113.715"
         transform="matrix(0.315,0.9491,-0.9491,0.315,441.1776,-383.8588)"
         class="st3"
         width="2.207"
         height="0"
         id="rect3494"
         style="fill:#ffffff" />
      <rect
         x="484.194"
         y="110.028"
         transform="matrix(0.3158,0.9488,-0.9488,0.3158,436.4226,-385.1805)"
         class="st3"
         width="2.2079999"
         height="0"
         id="rect3496"
         style="fill:#ffffff" />
      <rect
         x="498.271"
         y="102.909"
         class="st3"
         width="0"
         height="2.9549999"
         id="rect3498"
         style="fill:#ffffff" />
      <rect
         x="485.91101"
         y="111.032"
         class="st3"
         width="0"
         height="1.678"
         id="rect3500"
         style="fill:#ffffff" />
      <path
         class="st6"
         d="m 544.154,91.264 c -10e-4,0 -10e-4,0 0,0 -0.389,0.102 -0.775,0.199 -1.162,0.301 -0.275,0.073 -0.551,0.148 -0.828,0.221 -4.278,1.132 -8.549,2.304 -12.805,3.526 -0.671,0.193 -1.342,0.385 -2.012,0.581 -0.051,0.388 -0.082,0.786 -0.098,1.194 0.642,-0.196 1.283,-0.393 1.926,-0.587 4.513,-1.363 9.044,-2.667 13.587,-3.926 0.155,-0.042 0.311,-0.088 0.466,-0.13 0.479,-0.131 0.958,-0.257 1.436,-0.387 h 10e-4 c -0.157,-0.272 -0.327,-0.536 -0.511,-0.793 z"
         id="path3502"
         inkscape:connector-curvature="0"
         style="fill:#75ad0a" />
      <rect
         x="565.81598"
         y="110.557"
         class="st3"
         width="0"
         height="8.6590004"
         id="rect3504"
         style="fill:#ffffff" />
      <polygon
         class="st3"
         points="632.725,80.381 632.725,80.383 632.725,80.381 "
         id="polygon3506"
         style="fill:#ffffff" />
      <polygon
         class="st3"
         points="632.725,80.381 632.725,80.381 632.725,80.381 "
         id="polygon3508"
         style="fill:#ffffff" />
      <path
         class="st3"
         d="m 673.387,70.391 c -2.467,0.303 -4.935,0.611 -7.4,0.933 -1.24,0.16 -2.479,0.334 -3.718,0.498 l -16.32,42.373 -0.315,0.816 h 0.315 8.883 l 3.811,-9.609 h 19.052 l 2.813,7.403 c 2.826,-0.613 5.648,-1.236 8.467,-1.876 L 673.387,70.391 z m -11.444,26.384 6.225,-16.08 6.191,16.08 h -12.416 z"
         id="path3510"
         inkscape:connector-curvature="0"
         style="fill:#ffffff" />
      <rect
         x="635.34003"
         y="114.887"
         class="st3"
         width="8.7229996"
         height="0"
         id="rect3512"
         style="fill:#ffffff" />
      <polygon
         class="st3"
         points="486.871,114.763 486.912,114.887 494.737,114.887 496.215,110.496 497.168,107.663 497.799,105.787 497.799,105.787 498.742,102.986 504.652,85.423 507.112,99.884 507.508,102.209 507.741,103.581 508.137,105.906 509.664,114.887 518.26,114.887 518.26,114.887 516.273,103.106 515.874,100.741 515.662,99.48 515.263,97.115 510.394,68.232 501.83,68.232 490.872,100.774 480.072,68.232 471.383,68.232 463.327,114.887 463.327,114.887 472.018,114.887 477.123,85.424 484.949,108.98 485.646,111.075 486.176,112.668 486.871,114.763 "
         id="polygon3514"
         style="fill:#ffffff" />
      <path
         class="st3"
         d="m 545.627,80.38 0,0 v 1.233 2.573 c -0.607,-0.617 -1.237,-1.17 -1.887,-1.666 -2.646,-2.018 -5.639,-3.028 -8.979,-3.028 -4.857,0 -8.817,1.851 -11.88,5.55 -2.544,3.071 -3.959,6.733 -4.25,10.983 -0.037,0.547 -0.059,1.104 -0.059,1.672 l 0,0 0,0 c 0,0.284 0.007,0.567 0.018,0.847 0.016,0.425 0.046,0.844 0.086,1.259 0.078,0.816 0.202,1.611 0.373,2.387 0.662,2.988 2.011,5.679 4.053,8.067 3.168,3.68 7.139,5.519 11.912,5.519 3.137,0 6.045,-0.985 8.727,-2.955 0.643,-0.471 1.271,-0.997 1.887,-1.581 v 2.511 1.137 l 0,0 h 8.658 l 0,0 V 92.19 89.528 88.692 86.029 82.266 80.38 v 0 h -8.659 z m -0.662,25.667 -0.011,0.013 c -2.094,2.405 -5.067,3.666 -8.366,3.641 -3.243,0.026 -6.18,-1.283 -8.25,-3.716 -1.453,-1.656 -2.374,-3.648 -2.768,-5.838 -0.145,-0.8 -0.221,-1.624 -0.223,-2.471 0,-0.024 -0.002,-0.048 -0.002,-0.074 -0.002,-0.379 0.014,-0.755 0.039,-1.127 0.068,-0.93 0.231,-1.823 0.475,-2.684 0.48,-1.691 1.291,-3.233 2.455,-4.551 2.068,-2.379 4.999,-3.635 8.242,-3.608 3.012,-0.022 5.734,0.993 7.765,2.958 0.177,0.171 0.356,0.337 0.522,0.522 0.471,0.515 0.879,1.069 1.242,1.65 0.16,0.258 0.307,0.522 0.446,0.793 0.392,0.757 0.708,1.555 0.934,2.394 0.308,1.147 0.464,2.359 0.459,3.622 0.012,3.26 -0.97,6.2 -2.959,8.476 z"
         id="path3516"
         inkscape:connector-curvature="0"
         style="fill:#ffffff" />
      <polygon
         class="st3"
         points="570.146,88.368 570.146,87.865 572.346,87.865 575.252,87.865 575.252,87.865 575.252,87.209 575.252,84.496 575.252,83.82 575.252,82.267 575.252,81.105 575.252,80.381 575.252,80.38 570.146,80.38 570.146,67.662 570.146,67.662 561.486,67.662 561.486,67.662 561.486,80.38 557.047,80.38 557.047,80.381 557.047,85.344 557.047,87.865 557.047,87.865 557.661,87.865 560.938,87.865 561.486,87.865 561.486,90.415 561.486,114.887 570.146,114.887 "
         id="polygon3518"
         style="fill:#ffffff" />
      <path
         class="st3"
         d="m 605.968,84.693 0,0 c -1.208,-1.229 -2.546,-2.237 -4.01,-3.031 -1.54,-0.836 -3.223,-1.429 -5.046,-1.781 -0.484,-0.093 -0.977,-0.171 -1.48,-0.229 -0.878,-0.104 -1.783,-0.159 -2.722,-0.159 -3.704,0 -6.937,0.893 -9.702,2.666 -0.431,0.277 -0.853,0.573 -1.261,0.894 -0.65,0.51 -1.274,1.07 -1.866,1.689 -0.543,0.567 -1.037,1.159 -1.492,1.771 -0.463,0.622 -0.881,1.266 -1.252,1.935 -0.236,0.426 -0.456,0.86 -0.656,1.304 -1.083,2.412 -1.627,5.103 -1.627,8.073 l 0,0 0,0 c 0,5.286 1.729,9.6 5.186,12.94 3.457,3.34 7.84,5.011 13.146,5.011 6.103,0 10.893,-2.023 14.379,-6.059 0.415,-0.48 0.816,-0.983 1.194,-1.522 h -10e-4 10e-4 l -0.003,-10e-4 -1.74,-0.818 -5.543,-2.606 c -2.323,2.241 -5.1,3.362 -8.331,3.362 -2.618,0 -4.815,-0.7 -6.589,-2.101 -1.305,-1.029 -2.24,-2.367 -2.813,-4.005 -0.207,-0.591 -0.368,-1.217 -0.48,-1.886 h 1.925 25.857 l 0.033,-1.648 c 0,0 0,0 0,-0.001 0.105,-5.604 -1.598,-10.202 -5.107,-13.798 z m -20.234,8.596 h -2.096 c 0.322,-0.701 0.653,-1.325 0.993,-1.887 0.686,-1.13 1.407,-1.982 2.168,-2.542 1.812,-1.34 3.919,-2.01 6.321,-2.01 2.129,0 4.047,0.576 5.753,1.728 1.125,0.759 2.002,1.703 2.642,2.824 0.332,0.582 0.604,1.208 0.805,1.887 h -1.993 -14.593 z"
         id="path3520"
         inkscape:connector-curvature="0"
         style="fill:#ffffff" />
      <path
         class="st3"
         d="m 629.214,79.492 c -2.297,0 -4.187,0.792 -5.673,2.37 -0.724,0.769 -1.354,1.72 -1.885,2.862 V 81.156 80.381 80.38 h -7.453 v 0.001 34.506 l 0,0 h 8.627 l 0,0 v -13.938 -0.001 l -0.033,-1.679 c -0.005,-0.291 -0.008,-0.577 -0.009,-0.858 -0.016,-4.206 0.451,-7.152 1.399,-8.835 0.904,-1.647 2.021,-2.471 3.347,-2.471 0.22,0 0.468,0.04 0.729,0.098 0.512,0.113 1.096,0.327 1.766,0.663 l 0.642,-1.782 1.419,-3.942 0.635,-1.758 V 80.382 80.38 c -1.223,-0.592 -2.393,-0.888 -3.511,-0.888 z"
         id="path3522"
         inkscape:connector-curvature="0"
         style="fill:#ffffff" />
      <polygon
         class="st3"
         points="644.063,114.887 644.063,82.267 644.063,80.381 644.063,80.38 635.34,80.38 635.34,80.381 635.34,114.887 "
         id="polygon3524"
         style="fill:#ffffff" />
      <path
         class="st6"
         d="m 547.977,133.763 c -0.084,-0.52 -0.213,-1.023 -0.387,-1.507 -1.182,-3.298 -4.324,-5.661 -8.029,-5.661 -4.018,0 -7.379,2.779 -8.285,6.518 -0.129,0.527 -0.206,1.072 -0.231,1.632 -0.005,0.129 -0.019,0.256 -0.019,0.386 0,0.794 0.116,1.559 0.318,2.289 0.155,0.557 0.363,1.092 0.623,1.597 0.28,0.547 0.611,1.063 0.999,1.533 1.565,1.903 3.938,3.117 6.595,3.117 2.709,0 5.119,-1.267 6.683,-3.234 0.539,-0.679 0.974,-1.441 1.288,-2.266 0.19,-0.501 0.336,-1.021 0.43,-1.562 0.084,-0.48 0.136,-0.971 0.136,-1.475 -10e-4,-0.467 -0.049,-0.921 -0.121,-1.367 z"
         id="path3526"
         inkscape:connector-curvature="0"
         style="fill:#75ad0a" />
      <path
         class="st6"
         d="m 645.367,71.39 c -0.012,-0.071 -0.02,-0.146 -0.033,-0.218 -0.119,-0.608 -0.334,-1.183 -0.627,-1.706 0,-0.002 0,-0.002 -10e-4,-0.003 -0.183,-0.328 -0.396,-0.636 -0.638,-0.92 -0.178,-0.213 -0.374,-0.408 -0.582,-0.593 -1.029,-0.918 -2.383,-1.479 -3.871,-1.479 -1.773,0 -3.359,0.796 -4.43,2.046 0,0.001 -0.002,0.002 -0.002,0.003 -0.383,0.446 -0.699,0.949 -0.934,1.498 -0.299,0.701 -0.465,1.472 -0.465,2.282 0,0.212 0.014,0.421 0.035,0.627 0.009,0.083 0.025,0.165 0.038,0.247 0.148,0.986 0.543,1.89 1.12,2.649 1.066,1.398 2.744,2.306 4.637,2.306 2.537,0 4.689,-1.624 5.491,-3.887 0.216,-0.608 0.339,-1.26 0.339,-1.942 0.001,-0.311 -0.03,-0.613 -0.077,-0.91 z"
         id="path3528"
         inkscape:connector-curvature="0"
         style="fill:#75ad0a" />
    </g>
  </g>
</svg>
